<svg width="24" height="25" fill="none" xmlns="http://www.w3.org/2000/svg"><path fill-rule="evenodd" clip-rule="evenodd" d="M14.293 4.793C14 5.086 14 5.557 14 6.5c0 .943 0 1.414.293 1.707.293.293.764.293 1.707.293h2c.943 0 1.414 0 1.707-.293C20 7.914 20 7.443 20 6.5c0-.943 0-1.414-.293-1.707C19.414 4.5 18.943 4.5 18 4.5h-2c-.943 0-1.414 0-1.707.293Zm-10 12C4 17.086 4 17.557 4 18.5c0 .943 0 1.414.293 1.707.293.293.764.293 1.707.293h2c.943 0 1.414 0 1.707-.293.293-.293.293-.764.293-1.707 0-.943 0-1.414-.293-1.707C9.414 16.5 8.943 16.5 8 16.5H6c-.943 0-1.414 0-1.707.293ZM14 14.5c0-.943 0-1.414.293-1.707.293-.293.764-.293 1.707-.293h2c.943 0 1.414 0 1.707.293.293.293.293.764.293 1.707v4c0 .943 0 1.414-.293 1.707-.293.293-.764.293-1.707.293h-2c-.943 0-1.414 0-1.707-.293C14 19.914 14 19.443 14 18.5v-4ZM4.293 4.793C4 5.086 4 5.557 4 6.5v4c0 .943 0 1.414.293 1.707.293.293.764.293 1.707.293h2c.943 0 1.414 0 1.707-.293.293-.293.293-.764.293-1.707v-4c0-.943 0-1.414-.293-1.707C9.414 4.5 8.943 4.5 8 4.5H6c-.943 0-1.414 0-1.707.293Z" fill="#fff"/><path fill-rule="evenodd" clip-rule="evenodd" d="m4.823 5.323.003-.001a.706.706 0 0 1 .177-.042c.21-.028.504-.03.997-.03h2c.493 0 .787.002.997.03a.706.706 0 0 1 .177.042l.003.001.001.003a.706.706 0 0 1 .042.177c.028.21.03.504.03.997v4c0 .493-.002.787-.03.997a.705.705 0 0 1-.042.177l-.001.003-.003.001a.703.703 0 0 1-.177.042c-.21.028-.504.03-.997.03H6c-.493 0-.787-.002-.997-.03a.704.704 0 0 1-.177-.042l-.003-.001-.001-.003a.705.705 0 0 1-.042-.177c-.028-.21-.03-.504-.03-.997v-4c0-.493.002-.787.03-.997a.706.706 0 0 1 .042-.177l.001-.003ZM5.955 3.75h2.09c.433 0 .83 0 1.152.043.356.048.731.16 1.04.47.31.309.422.684.47 1.04.043.323.043.72.043 1.152v4.09c0 .433 0 .83-.043 1.152-.048.356-.16.731-.47 1.04-.309.31-.684.422-1.04.47-.323.043-.72.043-1.152.043h-2.09c-.433 0-.83 0-1.152-.043-.356-.048-.731-.16-1.04-.47-.31-.309-.422-.684-.47-1.04-.043-.323-.043-.72-.043-1.152v-4.09c0-.433 0-.83.043-1.152.048-.356.16-.731.47-1.04.309-.31.684-.422 1.04-.47.323-.043.72-.043 1.152-.043Zm8.87 1.572-.002.001-.001.003a.703.703 0 0 0-.042.177c-.028.21-.03.504-.03.997s.002.787.03.997a.703.703 0 0 0 .042.177l.001.003.003.001a.704.704 0 0 0 .177.042c.21.028.504.03.997.03h2c.493 0 .787-.002.997-.03a.704.704 0 0 0 .177-.042l.003-.001.001-.003a.703.703 0 0 0 .042-.177c.028-.21.03-.504.03-.997s-.002-.787-.03-.997a.703.703 0 0 0-.042-.177l-.001-.003-.003-.001a.704.704 0 0 0-.177-.042c-.21-.028-.504-.03-.997-.03h-2c-.493 0-.787.002-.997.03a.704.704 0 0 0-.177.042Zm1.13-1.572h2.09c.433 0 .83 0 1.152.043.356.048.731.16 1.04.47.31.309.422.684.47 1.04.043.323.043.72.043 1.152v.09c0 .433 0 .83-.043 1.152-.048.356-.16.731-.47 1.04-.309.31-.684.422-1.04.47-.323.043-.72.043-1.152.043h-2.09c-.433 0-.83 0-1.152-.043-.356-.048-.731-.16-1.04-.47-.31-.309-.422-.684-.47-1.04-.043-.323-.043-.72-.043-1.152v-.09c0-.433 0-.83.043-1.152.048-.356.16-.731.47-1.04.309-.31.684-.422 1.04-.47.323-.043.72-.043 1.152-.043Zm0 8h2.09c.433 0 .83 0 1.152.043.356.048.731.16 1.04.47.31.309.422.684.47 1.04.043.323.043.72.043 1.152v4.09c0 .433 0 .83-.043 1.152-.048.356-.16.731-.47 1.04-.309.31-.684.422-1.04.47-.323.043-.72.043-1.152.043h-2.09c-.433 0-.83 0-1.152-.043-.356-.048-.731-.16-1.04-.47-.31-.309-.422-.684-.47-1.04-.043-.323-.043-.72-.043-1.152v-4.09c0-.433 0-.83.043-1.152.048-.356.16-.731.47-1.04.309-.31.684-.422 1.04-.47.323-.043.72-.043 1.152-.043Zm-1.13 1.572-.002.001-.001.003a.703.703 0 0 0-.042.177c-.028.21-.03.504-.03.997v4c0 .493.002.787.03.997a.702.702 0 0 0 .042.177l.001.003.003.001a.702.702 0 0 0 .177.042c.21.028.504.03.997.03h2c.493 0 .787-.002.997-.03a.702.702 0 0 0 .177-.042l.003-.001.001-.003a.702.702 0 0 0 .042-.177c.028-.21.03-.504.03-.997v-4c0-.493-.002-.787-.03-.997a.703.703 0 0 0-.037-.167l-.003-.007-.002-.003-.001-.003-.003-.001a.702.702 0 0 0-.177-.042c-.21-.028-.504-.03-.997-.03h-2c-.493 0-.787.002-.997.03a.702.702 0 0 0-.177.042Zm-10 4-.002.001-.001.003a.705.705 0 0 0-.042.177c-.028.21-.03.504-.03.997s.002.787.03.997a.704.704 0 0 0 .042.177l.001.003.003.001a.704.704 0 0 0 .177.042c.21.028.504.03.997.03h2c.493 0 .787-.002.997-.03a.703.703 0 0 0 .173-.04l.004-.002.003-.001.001-.003.002-.003a.705.705 0 0 0 .04-.174c.028-.21.03-.504.03-.997s-.002-.787-.03-.997a.706.706 0 0 0-.042-.177l-.001-.003-.003-.001a.703.703 0 0 0-.177-.042c-.21-.028-.504-.03-.997-.03H6c-.493 0-.787.002-.997.03a.704.704 0 0 0-.177.042Zm1.13-1.572h2.09c.433 0 .83 0 1.152.043.356.048.731.16 1.04.47.31.309.422.684.47 1.04.043.323.043.72.043 1.152v.09c0 .433 0 .83-.043 1.152-.048.356-.16.731-.47 1.04-.309.31-.684.422-1.04.47-.323.043-.72.043-1.152.043h-2.09c-.433 0-.83 0-1.152-.043-.356-.048-.731-.16-1.04-.47-.31-.309-.422-.684-.47-1.04-.043-.323-.043-.72-.043-1.152v-.09c0-.433 0-.83.043-1.152.048-.356.16-.731.47-1.04.309-.31.684-.422 1.04-.47.323-.043.72-.043 1.152-.043Z" fill="#fff"/></svg>