<svg width="452" height="458" fill="none" xmlns="http://www.w3.org/2000/svg"><path d="M274.802 194.965V0H30C13.431 0 0 13.431 0 30v427.618h127.855l90.83-21.984 24.877-95.457 31.24-145.212Z" fill="#fff"/><rect x="255.712" y="197.858" width="61.324" height="61.324" rx="30.662" transform="rotate(90 255.712 197.858)" fill="url('#paint0_linear_109_170')"/><path d="M236.494 227.078a1.916 1.916 0 0 1 0 3.207l-16.143 10.563c-1.274.834-2.965-.08-2.965-1.604v-21.125c0-1.523 1.691-2.438 2.965-1.604l16.143 10.563Z" fill="#fff"/><rect x="254.754" y="198.816" width="59.408" height="59.408" rx="29.704" transform="rotate(90 254.754 198.816)" stroke="url('#paint1_linear_109_170')" stroke-opacity=".4" stroke-width="1.916"/><defs><linearGradient id="paint0_linear_109_170" x1="261.94" y1="245.341" x2="316.557" y2="218.511" gradientUnits="userSpaceOnUse"><stop stop-color="#fff" stop-opacity=".44"/><stop offset="1" stop-color="#fff" stop-opacity=".04"/></linearGradient><linearGradient id="paint1_linear_109_170" x1="331.5" y1="227.942" x2="298.305" y2="271.438" gradientUnits="userSpaceOnUse"><stop stop-color="#646464" stop-opacity=".44"/><stop offset="1" stop-color="#fff" stop-opacity=".43"/></linearGradient></defs></svg>