<svg width="218" height="106" fill="none" xmlns="http://www.w3.org/2000/svg"><path d="M26 15.752c-13.268 3.288-25 24.5-25 24.5v65h216v-84s-17.622-16.88-32-19c-27.635-4.075-28.128 42.647-56 44.5-18.237 1.212-27.558-21.36-44.5-14.5-15.83 6.409-6.302 32.087-22.5 37.5-24.038 8.032-11.4-60.097-36-54Z" fill="url('#paint0_linear_1_136')"/><path d="M1 39.252s11.732-21.212 25-24.5c24.6-6.098 11.962 62.032 36 54 16.198-5.413 6.67-31.091 22.5-37.5 16.942-6.86 26.263 15.712 44.5 14.5 27.872-1.853 28.365-48.575 56-44.5 14.378 2.12 32 19 32 19" stroke="#FFAC8F" stroke-width="2"/><defs><linearGradient id="paint0_linear_1_136" x1="109" y1="-7" x2="109" y2="105.252" gradientUnits="userSpaceOnUse"><stop stop-color="#FFAC8F" stop-opacity=".67"/><stop offset="1" stop-color="#201612" stop-opacity="0"/></linearGradient></defs></svg>