<svg width="54" height="66" fill="none" xmlns="http://www.w3.org/2000/svg"><rect width="54" height="66" rx="12" fill="#FFAC8F"/><g clip-path="url('#clip0_1_131')"><path d="M27 44.667c-6.444 0-11.667-5.224-11.667-11.667 0-6.444 5.223-11.667 11.667-11.667S38.667 26.557 38.667 33c0 6.444-5.224 11.667-11.667 11.667Zm-4.083-9.334v2.334h2.916V40h2.334v-2.333h1.166a2.916 2.916 0 1 0 0-5.834h-4.666a.583.583 0 1 1 0-1.166h6.416v-2.334h-2.916V26h-2.334v2.333h-1.166a2.917 2.917 0 1 0 0 5.834h4.666a.583.583 0 1 1 0 1.166h-6.416Z" fill="#fff"/></g><defs><clipPath id="clip0_1_131"><path fill="#fff" transform="translate(13 19)" d="M0 0h28v28H0z"/></clipPath></defs></svg>