<svg width="211" height="88" fill="none" xmlns="http://www.w3.org/2000/svg"><path d="M30.866 43.634C17.286 44.55 0 27.54 0 27.54V88h211V1.894c-21.539 16.3-30.159-1.694-57.177 0-19.024 1.192-23.984 33.137-41.492 25.647C92.44 19.032 81.611-3.773 60.719 1.894c-19.412 5.266-9.777 40.384-29.853 41.74Z" fill="url('#paint0_linear_1_145')"/><path d="M1 27.389s17.08 16.911 30.5 16C51.338 42.04 41.818 7.124 61 1.889c20.644-5.635 31.344 17.04 51 25.5 17.301 7.446 22.202-24.315 41-25.5 26.699-1.684 35.216 16.206 56.5 0" stroke="#73CED0" stroke-width="2" stroke-linecap="round"/><defs><linearGradient id="paint0_linear_1_145" x1="106" y1="-42.5" x2="105.5" y2="88" gradientUnits="userSpaceOnUse"><stop stop-color="#4BA2A4"/><stop offset="1" stop-color="#041616" stop-opacity="0"/></linearGradient></defs></svg>