<svg width="23" height="26" fill="none" xmlns="http://www.w3.org/2000/svg"><path fill-rule="evenodd" clip-rule="evenodd" d="M8.824 22.73c.6.668 1.369 1.034 2.167 1.034h.002c.801 0 1.574-.366 2.175-1.035a.869.869 0 0 1 1.29 1.161c-.935 1.038-2.165 1.61-3.466 1.61h-.002c-1.297-.001-2.524-.573-3.456-1.61a.866.866 0 1 1 1.29-1.16ZM11.05.623c5.143 0 8.598 4.006 8.598 7.747 0 1.924.49 2.74 1.01 3.605.513.854 1.095 1.824 1.095 3.656-.404 4.683-5.293 5.065-10.703 5.065-5.41 0-10.3-.382-10.7-4.99-.003-1.907.58-2.877 1.093-3.731l.181-.305c.447-.768.828-1.603.828-3.3 0-3.741 3.455-7.747 8.598-7.747Zm0 1.736c-4.044 0-6.863 3.168-6.863 6.01 0 2.406-.667 3.518-1.257 4.5-.474.787-.847 1.41-.847 2.762.193 2.183 1.634 3.33 8.967 3.33 7.293 0 8.779-1.198 8.97-3.405-.003-1.277-.377-1.9-.85-2.688-.59-.98-1.258-2.093-1.258-4.498 0-2.843-2.818-6.011-6.862-6.011Z" fill="#fff"/><circle cx="18.284" cy="4.673" r="3.76" fill="red" stroke="#2A2828" stroke-width="1.736"/></svg>