<svg width="31" height="455" fill="none" xmlns="http://www.w3.org/2000/svg"><path fill-rule="evenodd" clip-rule="evenodd" d="M8.816 341.572c1.6-.053 2.11-.065 6.184-.065 4.075 0 4.584.013 6.183.065 1.598.053 2.689.237 3.643.506 1 .274 1.907.702 2.657 1.256.762.544 1.353 1.202 1.73 1.928.37.692.624 1.484.697 2.643.073 1.161.09 1.531.09 4.488 0 2.957-.017 3.327-.09 4.488-.073 1.159-.327 1.951-.698 2.643-.383.716-.896 1.323-1.73 1.928-.749.554-1.655.982-2.656 1.256-.954.269-2.045.453-3.642.506-1.6.053-2.11.065-6.184.065s-4.584-.013-6.184-.065c-1.597-.053-2.688-.237-3.642-.506-.986-.279-1.823-.651-2.657-1.256-.762-.544-1.353-1.202-1.73-1.928-.37-.692-.624-1.484-.697-2.643-.073-1.161-.09-1.531-.09-4.488 0-2.957.017-3.327.09-4.487.073-1.16.327-1.952.698-2.644.376-.726.967-1.384 1.73-1.928.749-.554 1.655-.982 2.656-1.256.954-.269 2.045-.453 3.642-.506Zm12.246 1.96c-1.582-.052-2.057-.064-6.062-.064-4.005 0-4.48.012-6.062.064-1.462.048-2.256.225-2.785.375-.7.197-1.2.433-1.725.814-.524.381-.85.744-1.121 1.252-.206.383-.45.959-.517 2.021-.072 1.148-.087 1.492-.087 4.399s.015 3.251.087 4.399c.067 1.062.31 1.638.517 2.021.24.473.623.901 1.121 1.252.484.362 1.074.64 1.725.814.529.15 1.323.327 2.785.375 1.582.052 2.056.064 6.062.064s4.48-.012 6.062-.064c1.462-.048 2.256-.225 2.785-.375.7-.197 1.2-.433 1.725-.814.498-.351.881-.779 1.121-1.252.206-.383.45-.959.517-2.021.072-1.148.087-1.492.087-4.399s-.015-3.251-.087-4.399c-.067-1.062-.31-1.638-.517-2.021-.271-.508-.596-.871-1.121-1.252s-1.025-.617-1.725-.814c-.529-.15-1.323-.327-2.785-.375Zm-7.977 12.217a6.698 6.698 0 0 0 1.915.276c1.328 0 2.6-.382 3.539-1.064.939-.681 1.466-1.605 1.466-2.568 0-.963-.527-1.887-1.466-2.568-.939-.682-2.212-1.064-3.539-1.064-.657 0-1.308.094-1.915.276-.608.183-1.16.45-1.624.788a3.8 3.8 0 0 0-1.085 1.178c-.252.441-.38.913-.38 1.39 0 .477.128.949.38 1.39a3.8 3.8 0 0 0 1.085 1.178 5.417 5.417 0 0 0 1.624.788Zm-3.537-7.313c1.446-1.049 3.407-1.638 5.452-1.638s4.006.589 5.452 1.638c1.446 1.05 2.258 2.473 2.258 3.957s-.812 2.907-2.258 3.957c-1.446 1.049-3.407 1.638-5.452 1.638s-4.006-.589-5.452-1.638c-1.446-1.05-2.258-2.473-2.258-3.957s.812-2.907 2.258-3.957Zm14.872-.805c.341-.248.533-.584.533-.935 0-.351-.192-.687-.533-.935-.342-.248-.806-.388-1.29-.388-.482 0-.946.14-1.288.388-.342.248-.534.584-.534.935 0 .351.192.687.534.935s.806.388 1.289.388c.483 0 .947-.14 1.289-.388Z" fill="#fff"/><path d="M30 439.4a16.07 16.07 0 0 1-3.534.703c1.27-.552 2.246-1.429 2.706-2.472-1.19.512-2.507.884-3.909 1.083-1.123-.866-2.721-1.409-4.492-1.409-3.398 0-6.154 2-6.154 4.468 0 .349.055.689.158 1.017-5.117-.187-9.65-1.966-12.686-4.668-.529.661-.833 1.429-.833 2.246 0 1.549 1.088 2.917 2.738 3.718a7.976 7.976 0 0 1-2.788-.559v.058c0 2.164 2.12 3.969 4.938 4.38a8.472 8.472 0 0 1-2.78.076c.783 1.774 3.056 3.067 5.75 3.101-2.107 1.199-4.762 1.913-7.645 1.913-.497 0-.987-.021-1.469-.062C2.724 454.262 5.959 455 9.434 455c11.323 0 17.513-6.806 17.513-12.709 0-.192-.007-.385-.019-.577 1.203-.631 2.246-1.416 3.07-2.311L30 439.4ZM10.329 242.83c0 .758.037 4.467.037 4.467H6v4.753l4.329-.009.037 15.058h8.731V252.05l5.592-.009s.422-2.087.684-4.744h-6.276s-.142-3.291-.142-3.807c0-.518.937-1.215 1.863-1.215H25.5V237h-6.366c-9.018 0-8.805 5.072-8.805 5.83ZM15.213 89.175c-.325.01-.634.157-.861.411a1.424 1.424 0 0 0-.354.949v2.718c0 .179.032.356.094.521.063.165.155.315.271.441.116.127.254.227.406.295a1.163 1.163 0 0 0 .957 0c.152-.068.29-.168.406-.295.116-.126.208-.276.271-.441.063-.165.095-.342.095-.52v-2.72c0-.181-.034-.36-.098-.528a1.369 1.369 0 0 0-.28-.446 1.244 1.244 0 0 0-.418-.292 1.16 1.16 0 0 0-.489-.093Zm-9.708 4.381a1.182 1.182 0 0 0-.687.238c-.203.15-.36.363-.452.61a1.47 1.47 0 0 0-.067.782c.05.261.168.502.342.69l1.768 1.928c.174.192.398.323.641.376.243.053.496.025.725-.078.229-.104.424-.28.561-.505.137-.225.209-.49.207-.76a1.422 1.422 0 0 0-.366-.955l-1.768-1.928a1.247 1.247 0 0 0-.415-.298 1.162 1.162 0 0 0-.489-.1Zm19.422 0a1.21 1.21 0 0 0-.84.398l-1.768 1.922a1.365 1.365 0 0 0-.29.442 1.459 1.459 0 0 0 .257 1.516c.119.13.26.231.416.3a1.163 1.163 0 0 0 .979-.02 1.26 1.26 0 0 0 .406-.315l1.768-1.923a1.37 1.37 0 0 0 .273-.44c.064-.165.097-.342.098-.52 0-.183-.035-.364-.101-.532a1.374 1.374 0 0 0-.284-.447 1.246 1.246 0 0 0-.422-.291 1.164 1.164 0 0 0-.492-.09Zm-9.787 3.776a7.092 7.092 0 0 0-4.126 1.422c-1.217.905-2.162 2.18-2.716 3.666a8.822 8.822 0 0 0-.401 4.687c.293 1.571 1.005 3.014 2.047 4.147 1.414 1.493 3.31 2.321 5.281 2.305 1.97-.015 3.856-.873 5.25-2.388 1.392-1.515 2.181-3.566 2.196-5.708.014-2.142-.747-4.205-2.12-5.742a7.487 7.487 0 0 0-2.483-1.79 6.974 6.974 0 0 0-2.928-.6Zm-13.644 6.796c-.164 0-.327.035-.478.104-.152.068-.29.168-.406.294a1.38 1.38 0 0 0-.271.441 1.465 1.465 0 0 0 0 1.041c.063.165.155.315.27.441.117.126.255.226.407.295.151.068.314.103.478.103h2.5c.693 0 1.25-.606 1.25-1.359s-.557-1.36-1.25-1.36h-2.5Zm25.003 0a1.17 1.17 0 0 0-.479.103c-.151.069-.29.169-.405.295a1.37 1.37 0 0 0-.272.441 1.464 1.464 0 0 0 0 1.041c.063.165.155.315.271.441.117.126.255.227.406.295.152.068.315.103.48.103H29c.692 0 1.25-.606 1.25-1.359s-.558-1.36-1.25-1.36h-2.5Zm-19.24 8.65c-.32.01-.624.153-.85.399l-1.768 1.922a1.37 1.37 0 0 0-.271.441 1.463 1.463 0 0 0 0 1.041c.062.165.154.315.27.441.116.126.254.226.406.295a1.17 1.17 0 0 0 1.363-.296l1.768-1.922c.116-.126.208-.276.271-.441a1.458 1.458 0 0 0-.283-1.495 1.238 1.238 0 0 0-.418-.292 1.162 1.162 0 0 0-.489-.093Zm15.93 0a1.178 1.178 0 0 0-.69.236 1.34 1.34 0 0 0-.454.611 1.467 1.467 0 0 0-.068.782 1.4 1.4 0 0 0 .342.692l1.768 1.922c.116.126.253.227.405.295a1.154 1.154 0 0 0 .957 0c.152-.068.29-.169.405-.295.117-.126.21-.275.274-.44a1.426 1.426 0 0 0-.274-1.482l-1.767-1.922a1.23 1.23 0 0 0-.413-.298 1.155 1.155 0 0 0-.486-.101Zm-7.976 3.585a1.202 1.202 0 0 0-.861.411 1.422 1.422 0 0 0-.354.948v2.719c0 .178.032.355.095.52.063.165.155.315.27.441.117.126.255.226.406.295a1.168 1.168 0 0 0 .957 0c.152-.069.29-.169.406-.295.116-.126.208-.276.27-.441.064-.165.096-.342.096-.52v-2.719c0-.182-.034-.362-.098-.529a1.378 1.378 0 0 0-.28-.446 1.252 1.252 0 0 0-.418-.292 1.162 1.162 0 0 0-.489-.092Z" fill="#fff"/><path fill-rule="evenodd" clip-rule="evenodd" d="M19.248 0c4.971 0 9.001 4.382 9.001 9.787 0 2.311-.736 4.435-1.968 6.11l3.676 3.996c.39.425.39 1.114 0 1.538a.942.942 0 0 1-1.32.09l-.095-.09-3.676-3.996c-1.54 1.34-3.493 2.14-5.618 2.14-4.971 0-9.001-4.382-9.001-9.788 0-5.405 4.03-9.787 9.001-9.787Zm0 2.175c-3.866 0-7 3.408-7 7.612 0 4.205 3.134 7.613 7 7.613 3.867 0 7.001-3.408 7.001-7.613 0-4.204-3.134-7.612-7-7.612Z" fill="#fff"/></svg>