<svg width="891" height="686" fill="none" xmlns="http://www.w3.org/2000/svg"><g filter="url('#filter0_d_108_136')"><path d="M497.776 610.083c.594-5.114 4.233-17.542 13.343-7.269 9.109 10.273 12.748 12.405 12.748 12.405s4.878-.55 7.897 7.017c3.02 7.567 16.388 11.328 16.388 11.328s9.419-1.078 12.155 6.191c2.735 7.269 12.438 6.489 17.6 8.369 5.161 1.881 13.678 2.958 19.742 5.802l11.845 5.526s11.846.482 13.652 4.838c1.807 4.357 35.949 3.257 35.949 3.257s23.975 5.939 27.614 10.525c3.638 4.586 46.762-4.586 46.762-4.586s9.419-14.034-14.891-11.328c-24.31 2.706-23.071 8.622-34.607 4.586-11.535-4.036-22.168-8.897-22.168-8.897s-3.329-3.256-15.484-1.353c-12.155 1.903-18.065-11.878-18.065-11.878s-2.761-6.214-11.561-3.508c-8.801 2.706-33.394-20.775-33.394-20.775s2.735-5.664-6.968-11.603c-9.704-5.939-28.543-21.303-32.182-33.433-3.638-12.13-4.567-6.489-10.942-12.428-6.374-5.939-9.393-18.345-9.703-19.422-.31-1.078-18.839-19.95-25.497-19.95-6.658 0-9.729 1.353-18.22-4.861-8.49-6.214-20.362-16.189-32.491-17.267-12.129-1.078-9.729-9.722-9.729-12.68s-24.284-10.801-30.659-15.639c-4.512-3.112-9.84-5.155-15.484-5.939 0 0-10.322-.115-10.632 3.508-1.213 16.442-20.336 16.992-9.704 1.353 10.633-15.638 5.472-11.236 13.652-11.236 8.181 0 10.323-2.797 19.743 3.142 9.419 5.939 24.903 9.172 32.49 8.622 7.588-.551 9.42 2.155 16.697 9.722 7.278 7.567 13.962 4.586 13.962 4.586l15.794 9.975s27.665-1.766 64.672 24.559l13.419-15.18s-3.406-16.396-6.142-19.216c-2.735-2.82-18.219-14.974-18.89-15.386a76.497 76.497 0 0 1-5.007-7.292l-13.91-12.131c-3.087-2.202-6.959-3.348-10.916-3.233-6.142.39-12.749-4.265-12.749-4.265s-4.103-1.399 2.271-1.811c6.375-.413 14.117-2.293 20.956-1.009 6.838 1.284 6.813 3.439 10.477 3.027 3.665-.413 12.284-7.269 18.065-7.086 7.336.65 14.402 2.8 20.646 6.283 3.638 2.637 11.148.206 14.555-1.009 3.406-1.215 3.871-7.292-5.678-8.301-9.548-1.009-12.748 0-12.748 0s-9.575-3.439 3.174-9.516" stroke="#fff" stroke-width="1.5" stroke-miterlimit="10"/><path d="m547.281 520.711 12.458 7.693c10.054 4.922 19.066 11.362 26.633 19.033 9.27 7.823 12.903 7.681 12.903 7.681l33.007 9.723s14.349-1.422 21.858-10.525c7.51-9.104 0-14.171 0-14.171l10.323-17.588 1.136-27.127s20.645-16.991 25.807-25.086c5.161-8.094-42.375-54.414-42.375-54.414l12.645-39.601 1.6-23.274s4.568-.803-13.42-2.293c-17.987-1.491-23.458-4.036-33.936-2.821-10.477 1.215-11.148-2.018-15.948 1.812-4.8 3.829-10.478 5.457-13.652-2.133-3.174-7.59-14.581-20.316-22.762-19.514-8.181.803-21.884 14.378-21.884 14.378l-30.271 2.018s-23.691 8.897-25.059 8.69c-1.368-.206-33.239 2.844-33.239 2.844s1.832 10.112-3.639 11.465c-5.471 1.353-12.31 8.278-12.31 8.278s-18.065.619-26.633 10.318c-8.568 9.7-28.387.207-28.387.207s-4.103-.596 0-7.888-.439-13.139-3.407-16.396c-2.967-3.256 0-7.681-6.142-11.923-6.142-4.243-27.097-20.225-27.097-20.225s-2.735-2.637-12.903 1.399c-10.168 4.035-12.749-.803-12.749-.803s-3.871-4.861-15.045-5.457c-3.307-.041-6.475-1.191-8.868-3.219-2.393-2.029-3.834-4.786-4.036-7.719 0-1.812-14.787-9.7-13.419-12.13 1.367-2.431-10.71-12.337-10.71-12.337-6.887-4.484-15.133-7.024-23.665-7.292a173.003 173.003 0 0 0-17.523 0c-.697-.206-5.007-2.843-18.065-4.448-13.058-1.606-27.716-9.31-27.716-39.785-2.54-3.387-5.979-6.167-10.014-8.094a2184.783 2184.783 0 0 1-13.884-5.664s1.575-2.041-4.335-5.274a8.629 8.629 0 0 1-2.746-2.142 7.541 7.541 0 0 1-1.543-2.942 7.034 7.034 0 0 1-.078-3.245 7.44 7.44 0 0 1 1.399-2.999c2.065-2.293 9.11-7.475.697-18.207-8.413-10.731-.465-23.068-.465-23.068s-3.174-5.87 2.065-15.57c5.239-9.699 13.419-14.377 3.871-22.93-9.549-8.553-14.349-4.861-17.781-23.068-3.432-18.207-8.878-26.508-8.878-26.508s-17.523-16.189-21.394-17.748c-3.871-1.56-1.135-5.045-1.832-6.466-.697-1.422-9.78-7.086-9.78-7.086-3.799-7.783-8.532-15.179-14.117-22.06-1.987-2.292-6.374-13.551-6.374-13.551-4.024-3.336-9.31-5.21-14.814-5.251-10.322-.62-13.42 0-16.62 3.852-3.2 3.852-7.974 2.018-8.877 2.293-.903.275-23.948.734-23.948.734" stroke="#fff" stroke-width="1.5" stroke-miterlimit="10"/><path d="m657.392 423.405-1.832-6.581s.464-7.681 7.871-3.737c7.406 3.944 22.762 13.552 22.762 13.552s7.071.298 22.322-4.953c15.252-5.252 15.717-8.691 28.388-8.599 12.671.091 21.162-2.729 19.691-10.617-1.471-7.888-2.013-19.262-2.013-19.262 2.701-5.075 7.246-9.194 12.903-11.694 9.678-4.265 9.678-15.478 8.104-18.62-1.575-3.141-5.704-16.189-5.704-16.189s-2.167-9.31 13.446-15.776c15.613-6.466 26.865-2.935 26.865-2.935l50.194-37.125s13.781-8.209 12.645-29.144c-1.135-20.936-39.174-39.762-39.174-39.762l-2.375-14.652a38.332 38.332 0 0 0-9.006-6.077c-4.878-2.293-10.323-17.198-10.323-17.198s-1.368-2.018 3.639-8.003c3.018-3.401 4.835-7.52 5.221-11.838.385-4.318-.677-8.64-3.053-12.422-4.113-5.558-9.142-10.535-14.917-14.767-.335-.619.697-14.676.361-14.676a84.3 84.3 0 0 1-12.129-8.874c-2.968-2.935-12.077-13.758-12.077-13.758s-4.542-6.994-13.188 2.729c-8.645 9.722-42.813 32.263-53.988 37.33-11.174 5.068-9.058 18.184-9.058 18.184s-5.807 8.301-21.884 12.543c-16.078 4.242-6.142 22.656-6.142 22.656s9.91 8.094 5.368 13.253c-4.542 5.16-6.607 5.871-6.168 18.345.438 12.474-16.491 9.011-16.491 9.011l-20.491 17.382a8.587 8.587 0 0 1-4.344-.723c-1.338-.611-2.447-1.555-3.191-2.717a57.895 57.895 0 0 1-6.245-11.924s-.129-12.841 0-13.162c.129-.321-15.485-11.327-15.485-11.327l-13.316 1.33c-2.54-1.592-4.647-3.668-6.168-6.077-1.367-3.05-26.968-12.451-26.968-12.451-2.975-2.168-5.413-4.861-7.158-7.907-1.746-3.047-2.762-6.382-2.984-9.796a12.614 12.614 0 0 0-.774-1.742c-1.523-2.89-5.471-8.141-13.239-5.733-5.58 1.568-10.731 4.153-15.123 7.59-.361 0-35.768 3.119-35.768 3.119" stroke="#fff" stroke-width="1.5" stroke-miterlimit="10"/><path d="M861.421 281.511s12.62 1.032 18.839 25.453M550.5 164.726l1.471-5.755v-14.974M744.465 109.693s1.806-17.496 3.561-20.201c1.755-2.706 1.29-8.187 1.239-8.875-.052-.688-.439-4.035-.439-4.035s-1.316-3.004-2.581-2.775c-4 .78-5.935 5.09-6.322.39-.388-4.7-.388-6.765-.388-6.765" stroke="#fff" stroke-width="1.5" stroke-miterlimit="10"/><g filter="url('#filter1_d_108_136')"><ellipse cx="9.757" cy="13.051" rx="4.757" ry="4.231" fill="#fff"/></g><g filter="url('#filter2_d_108_136')"><ellipse cx="482.271" cy="169.579" rx="4.757" ry="4.231" fill="#fff"/></g><g filter="url('#filter3_d_108_136')"><ellipse cx="552.038" cy="142.786" rx="4.757" ry="4.231" fill="#fff"/></g><g filter="url('#filter4_d_108_136')"><ellipse cx="739.14" cy="66.637" rx="4.757" ry="4.231" fill="#fff"/></g><g filter="url('#filter5_d_108_136')"><ellipse cx="880.26" cy="309.186" rx="4.757" ry="4.231" fill="#fff"/></g><g filter="url('#filter6_d_108_136')"><ellipse cx="496.541" cy="612.372" rx="4.757" ry="4.231" fill="#fff"/></g></g><defs><filter id="filter0_d_108_136" x="0" y=".25" width="890.017" height="684.856" filterUnits="userSpaceOnUse" color-interpolation-filters="sRGB"><feFlood flood-opacity="0" result="BackgroundImageFix"/><feColorMatrix in="SourceAlpha" values="0 0 0 0 0 0 0 0 0 0 0 0 0 0 0 0 0 0 127 0" result="hardAlpha"/><feOffset/><feGaussianBlur stdDeviation="2.5"/><feComposite in2="hardAlpha" operator="out"/><feColorMatrix values="0 0 0 0 0 0 0 0 0 0 0 0 0 0 0 0 0 0 0.8 0"/><feBlend in2="BackgroundImageFix" result="effect1_dropShadow_108_136"/><feBlend in="SourceGraphic" in2="effect1_dropShadow_108_136" result="shape"/></filter><filter id="filter1_d_108_136" x="0" y="3.82" width="19.514" height="18.461" filterUnits="userSpaceOnUse" color-interpolation-filters="sRGB"><feFlood flood-opacity="0" result="BackgroundImageFix"/><feColorMatrix in="SourceAlpha" values="0 0 0 0 0 0 0 0 0 0 0 0 0 0 0 0 0 0 127 0" result="hardAlpha"/><feOffset/><feGaussianBlur stdDeviation="2.5"/><feComposite in2="hardAlpha" operator="out"/><feColorMatrix values="0 0 0 0 0 0 0 0 0 0 0 0 0 0 0 0 0 0 0.2 0"/><feBlend in2="BackgroundImageFix" result="effect1_dropShadow_108_136"/><feBlend in="SourceGraphic" in2="effect1_dropShadow_108_136" result="shape"/></filter><filter id="filter2_d_108_136" x="472.514" y="160.349" width="19.514" height="18.461" filterUnits="userSpaceOnUse" color-interpolation-filters="sRGB"><feFlood flood-opacity="0" result="BackgroundImageFix"/><feColorMatrix in="SourceAlpha" values="0 0 0 0 0 0 0 0 0 0 0 0 0 0 0 0 0 0 127 0" result="hardAlpha"/><feOffset/><feGaussianBlur stdDeviation="2.5"/><feComposite in2="hardAlpha" operator="out"/><feColorMatrix values="0 0 0 0 0 0 0 0 0 0 0 0 0 0 0 0 0 0 0.2 0"/><feBlend in2="BackgroundImageFix" result="effect1_dropShadow_108_136"/><feBlend in="SourceGraphic" in2="effect1_dropShadow_108_136" result="shape"/></filter><filter id="filter3_d_108_136" x="542.281" y="133.556" width="19.514" height="18.461" filterUnits="userSpaceOnUse" color-interpolation-filters="sRGB"><feFlood flood-opacity="0" result="BackgroundImageFix"/><feColorMatrix in="SourceAlpha" values="0 0 0 0 0 0 0 0 0 0 0 0 0 0 0 0 0 0 127 0" result="hardAlpha"/><feOffset/><feGaussianBlur stdDeviation="2.5"/><feComposite in2="hardAlpha" operator="out"/><feColorMatrix values="0 0 0 0 0 0 0 0 0 0 0 0 0 0 0 0 0 0 0.2 0"/><feBlend in2="BackgroundImageFix" result="effect1_dropShadow_108_136"/><feBlend in="SourceGraphic" in2="effect1_dropShadow_108_136" result="shape"/></filter><filter id="filter4_d_108_136" x="729.384" y="57.407" width="19.514" height="18.461" filterUnits="userSpaceOnUse" color-interpolation-filters="sRGB"><feFlood flood-opacity="0" result="BackgroundImageFix"/><feColorMatrix in="SourceAlpha" values="0 0 0 0 0 0 0 0 0 0 0 0 0 0 0 0 0 0 127 0" result="hardAlpha"/><feOffset/><feGaussianBlur stdDeviation="2.5"/><feComposite in2="hardAlpha" operator="out"/><feColorMatrix values="0 0 0 0 0 0 0 0 0 0 0 0 0 0 0 0 0 0 0.2 0"/><feBlend in2="BackgroundImageFix" result="effect1_dropShadow_108_136"/><feBlend in="SourceGraphic" in2="effect1_dropShadow_108_136" result="shape"/></filter><filter id="filter5_d_108_136" x="870.504" y="299.955" width="19.514" height="18.461" filterUnits="userSpaceOnUse" color-interpolation-filters="sRGB"><feFlood flood-opacity="0" result="BackgroundImageFix"/><feColorMatrix in="SourceAlpha" values="0 0 0 0 0 0 0 0 0 0 0 0 0 0 0 0 0 0 127 0" result="hardAlpha"/><feOffset/><feGaussianBlur stdDeviation="2.5"/><feComposite in2="hardAlpha" operator="out"/><feColorMatrix values="0 0 0 0 0 0 0 0 0 0 0 0 0 0 0 0 0 0 0.2 0"/><feBlend in2="BackgroundImageFix" result="effect1_dropShadow_108_136"/><feBlend in="SourceGraphic" in2="effect1_dropShadow_108_136" result="shape"/></filter><filter id="filter6_d_108_136" x="486.784" y="603.141" width="19.514" height="18.461" filterUnits="userSpaceOnUse" color-interpolation-filters="sRGB"><feFlood flood-opacity="0" result="BackgroundImageFix"/><feColorMatrix in="SourceAlpha" values="0 0 0 0 0 0 0 0 0 0 0 0 0 0 0 0 0 0 127 0" result="hardAlpha"/><feOffset/><feGaussianBlur stdDeviation="2.5"/><feComposite in2="hardAlpha" operator="out"/><feColorMatrix values="0 0 0 0 0 0 0 0 0 0 0 0 0 0 0 0 0 0 0.2 0"/><feBlend in2="BackgroundImageFix" result="effect1_dropShadow_108_136"/><feBlend in="SourceGraphic" in2="effect1_dropShadow_108_136" result="shape"/></filter></defs></svg>