<svg width="62" height="9" fill="none" xmlns="http://www.w3.org/2000/svg"><path d="M1.734 1.309c-.46 0-.9-.023-1.226-.065C.183 1.202 0 1.146 0 1.087S.183.972.508.93C.833.89 1.274.865 1.734.865h58.532c.46 0 .9.023 1.226.065.325.041.508.098.508.157s-.183.115-.508.157c-.325.041-.766.065-1.226.065H1.734Zm0 3.745c-.46 0-.9-.023-1.226-.065C.183 4.948 0 4.891 0 4.832c0-.058.183-.115.508-.157.325-.041.766-.065 1.226-.065h58.532c.46 0 .9.023 1.226.065.325.041.508.098.508.157 0 .058-.183.115-.508.156-.325.042-.766.065-1.226.065l-58.532.001Zm0 3.746c-.46 0-.9-.024-1.226-.065C.183 8.693 0 8.637 0 8.578c0-.06.183-.116.508-.157.325-.042.766-.065 1.226-.065l58.532-.001c.46 0 .9.023 1.226.065.325.041.508.098.508.157s-.183.115-.508.157c-.325.041-.766.065-1.226.065H1.734Z" fill="#F8F8F8"/></svg>